#!OML:ASF X:\für Bonn\!DataBase\2005_08_11_Bastian_Final\c3d\Bastian.ASF
:FULLY-SPECIFIED
:DEGREES
123
root -9.96958 17.3243 -11.2252 166.957 122.277 -557.207
lowerback 8.83168 2.73235 2.96995
upperback 6.79788 3.9884 0.0839752
thorax 2.31328 2.17771 -1.82767
lowerneck -8.76212 3.97725 -4.41596
upperneck -4.62112 5.8153 0.675154
head -0.13284 3.03256 1.07271
rclavicle -1.15295e-014 1.03368e-014
rhumerus -41.5284 33.161 -96.5392
rradius 90.5928
rwrist 5.68306
rhand -16.1086 18.4732
rfingers 7.12502
rthumb 10.0954 -11.2646
lclavicle -1.15295e-014 1.03368e-014
lhumerus -49.711 -11.9278 75.9815
lradius 82.0961
lwrist 208.726
lhand -23.4428 10.7189
lfingers 7.12502
lthumb 3.0155 40.6773
rfemur 4.01808 -11.0703 26.9206
rtibia 58.3331
rfoot -3.09057 7.77814
rtoes -31.2571
lfemur -28.9237 5.81948 -27.2116
ltibia 33.9234
lfoot -20.5929 -10.0373
ltoes -27.6598
124
root -9.7321 17.2318 -11.0391 166.722 122.103 -557.128
lowerback 8.76037 2.76595 2.89627
upperback 6.85 4.02919 -0.0322665
thorax 2.41273 2.20125 -1.90254
lowerneck -8.55375 4.02269 -4.49072
upperneck -4.80568 5.87977 1.04452
head -0.239017 3.07117 1.1938
rclavicle -2.94201e-014 -1.27222e-014
rhumerus -42.2365 32.2352 -96.4656
rradius 88.194
rwrist 5.98077
rhand -16.1248 18.5834
rfingers 7.12502
rthumb 10.0798 -11.1551
lclavicle -2.94201e-014 -1.27222e-014
lhumerus -49.2891 -11.8277 76.4105
lradius 82.371
lwrist 208.758
lhand -23.668 10.8319
lfingers 7.12502
lthumb 2.79799 40.7933
rfemur 2.75778 -11.4941 26.1643
rtibia 62.2769
rfoot -3.16579 6.96443
rtoes -30.7837
lfemur -28.1685 5.66725 -27.5815
ltibia 34.8021
lfoot -20.2659 -9.33891
ltoes -24.2137
125
root -9.49553 17.1306 -10.8563 166.485 121.927 -557.006
lowerback 8.75043 2.79341 2.83992
upperback 6.92962 4.06634 -0.147356
thorax 2.50861 2.22462 -1.98816
lowerneck -8.45032 4.052 -4.66528
upperneck -4.9499 5.93878 1.45467
head -0.320113 3.10824 1.3491
rclavicle 3.93594e-014 7.95139e-015
rhumerus -42.7242 31.2375 -96.2955
rradius 85.6162
rwrist 6.32008
rhand -16.1655 18.6386
rfingers 7.12502
rthumb 10.0405 -11.1019
lclavicle 3.93594e-014 7.95139e-015
lhumerus -48.6589 -11.7226 76.9164
lradius 82.5642
lwrist 208.845
lhand -23.9657 10.9801
lfingers 7.12502
lthumb 2.51052 40.9451
rfemur 1.48633 -11.9492 25.2907
rtibia 66.224
rfoot -3.40357 5.86181
rtoes -30.6098
lfemur -27.4863 5.36423 -27.8933
ltibia 35.9296
lfoot -19.5192 -8.91113
ltoes -18.9743
126
root -9.26136 17.015 -10.6759 166.389 121.685 -556.753
lowerback 8.77782 2.79242 2.68614
upperback 6.96651 4.06002 -0.270829
thorax 2.52993 2.22059 -2.02998
lowerneck -8.26744 4.09798 -4.84992
upperneck -5.11754 6.01726 1.8507
head -0.423126 3.15439 1.50033
rclavicle -9.18385e-014 3.10104e-014
rhumerus -43.097 30.1518 -96.0919
rradius 82.8784
rwrist 6.70478
rhand -16.2254 18.6121
rfingers 7.12502
rthumb 9.98272 -11.1312
lclavicle -9.18385e-014 3.10104e-014
lhumerus -48.1167 -11.5852 77.504
lradius 82.779
lwrist 208.969
lhand -24.2567 11.1783
lfingers 7.12502
lthumb 2.22949 41.1464
rfemur 0.127099 -12.3914 24.3054
rtibia 70.1485
rfoot -3.58334 4.55554
rtoes -30.4655
lfemur -27.0049 4.93568 -28.2528
ltibia 37.2876
lfoot -18.3987 -8.8367
ltoes -11.7298
127
root -9.02935 16.896 -10.4981 166.239 121.397 -556.523
lowerback 8.85533 2.76415 2.49539
upperback 7.04928 4.018 -0.36084
thorax 2.5647 2.19814 -2.016
lowerneck -8.1324 4.14683 -4.98993
upperneck -5.33534 6.09878 2.13104
head -0.530198 3.20196 1.60815
rclavicle 3.18055e-015 -7.15625e-015
rhumerus -43.2442 29.0295 -95.7675
rradius 79.982
rwrist 7.10272
rhand -16.3873 18.5145
rfingers 7.12502
rthumb 9.82652 -11.2362
lclavicle 3.18055e-015 -7.15625e-015
lhumerus -47.4911 -11.4865 78.1737
lradius 82.9575
lwrist 209.171
lhand -24.4484 11.399
lfingers 7.12502
lthumb 2.04433 41.369
rfemur -1.21647 -12.7811 23.3194
rtibia 73.962
rfoot -3.66146 3.23489
rtoes -29.7492
lfemur -26.5892 4.54682 -28.583
ltibia 38.795
lfoot -17.2114 -8.8401
ltoes -4.46633
